<?xml version="1.0" encoding="utf-8"?>
<!-- Svg Vector Icons : http://www.onlinewebfonts.com/icon -->
<!DOCTYPE svg PUBLIC "-//W3C//DTD SVG 1.1//EN" "http://www.w3.org/Graphics/SVG/1.1/DTD/svg11.dtd">
<svg version="1.1" xmlns="http://www.w3.org/2000/svg" xmlns:xlink="http://www.w3.org/1999/xlink" x="0px" y="0px" viewBox="0 0 1000 1000" enable-background="new 0 0 1000 1000" xml:space="preserve">
<metadata> Svg Vector Icons : http://www.onlinewebfonts.com/icon </metadata>
<g><path d="M966.7,261.6l-47.2-47.2c-16.4-15.5-35.4-23.3-57.2-23.3c-22.2,0-41.1,7.8-56.6,23.3L500,520.1L194.3,214.4c-15.5-15.5-34.4-23.3-56.6-23.3c-21.8,0-40.9,7.8-57.2,23.3l-46.5,47.2C18,277.5,10,296.6,10,318.9c0,22.6,8,41.5,23.9,56.6l409.5,409.5c15.1,15.9,34,23.9,56.6,23.9c22.2,0,41.3-8,57.2-23.9l409.5-409.5c15.5-15.5,23.3-34.4,23.3-56.6C990,297,982.2,278,966.7,261.6z"/></g>
</svg>